<svg width="60" height="51" viewBox="0 0 60 51" fill="none" xmlns="http://www.w3.org/2000/svg">
<path d="M39.4667 50.665H33.7227L28.3893 37.3316H11.0773L5.744 50.665H0L17.0667 7.9983H22.4L39.4667 50.665ZM51.7333 26.665V50.665H46.4V26.665H51.7333ZM13.2107 31.9983H26.256L19.7333 15.6916L13.2107 31.9983ZM47.8107 0.851632C47.9108 0.600311 48.084 0.384805 48.3079 0.232982C48.5318 0.0811586 48.7961 0 49.0667 0C49.3372 0 49.6015 0.0811586 49.8254 0.232982C50.0493 0.384805 50.2225 0.600311 50.3227 0.851632L50.9973 2.4783C52.1293 5.2385 54.2768 7.45945 56.9973 8.68363L58.9093 9.53697C59.1541 9.65024 59.3614 9.83121 59.5067 10.0585C59.6519 10.2858 59.7291 10.5499 59.7291 10.8196C59.7291 11.0894 59.6519 11.3535 59.5067 11.5808C59.3614 11.8081 59.1541 11.989 58.9093 12.1023L56.888 13.0036C54.2337 14.1928 52.1214 16.3336 50.968 19.0036L50.312 20.513C50.2095 20.7587 50.0365 20.9687 49.8149 21.1164C49.5933 21.264 49.333 21.3428 49.0667 21.3428C48.8004 21.3428 48.54 21.264 48.3184 21.1164C48.0968 20.9687 47.9239 20.7587 47.8213 20.513L47.1627 19.0063C46.0105 16.3357 43.8992 14.1939 41.2453 13.0036L39.2187 12.1023C38.9731 11.9893 38.7651 11.8084 38.6193 11.5808C38.4735 11.3532 38.396 11.0886 38.396 10.8183C38.396 10.548 38.4735 10.2834 38.6193 10.0558C38.7651 9.82825 38.9731 9.64725 39.2187 9.5343L41.1333 8.68097C43.8539 7.45861 46.0023 5.23965 47.136 2.48097L47.8107 0.851632Z" fill="white"/>
</svg>
