<svg width="58" height="58" viewBox="0 0 58 58" fill="none" xmlns="http://www.w3.org/2000/svg">
<path d="M53.3333 11.3333C52.8029 11.3333 52.2942 11.1226 51.9191 10.7475C51.544 10.3725 51.3333 9.86377 51.3333 9.33333C51.3333 8.8029 51.544 8.29419 51.9191 7.91912C52.2942 7.54405 52.8029 7.33333 53.3333 7.33333C53.8638 7.33333 54.3725 7.54405 54.7475 7.91912C55.1226 8.29419 55.3333 8.8029 55.3333 9.33333C55.3333 9.86377 55.1226 10.3725 54.7475 10.7475C54.3725 11.1226 53.8638 11.3333 53.3333 11.3333ZM53.3333 11.3333V21.3333C53.3333 23.1947 53.3333 24.1253 53.104 24.88C52.8497 25.7196 52.3923 26.4834 51.7723 27.1039C51.1522 27.7245 50.3887 28.1824 49.5493 28.4373C48.792 28.6667 47.8613 28.6667 46 28.6667M4 46C4.53043 46 5.03914 46.2107 5.41421 46.5858C5.78929 46.9609 6 47.4696 6 48C6 48.5304 5.78929 49.0391 5.41421 49.4142C5.03914 49.7893 4.53043 50 4 50C3.46957 50 2.96086 49.7893 2.58579 49.4142C2.21071 49.0391 2 48.5304 2 48C2 47.4696 2.21071 46.9609 2.58579 46.5858C2.96086 46.2107 3.46957 46 4 46ZM4 46V36C4 34.1387 4 33.208 4.22933 32.4533C4.4836 31.6138 4.94102 30.8499 5.56106 30.2294C6.18111 29.6089 6.94464 29.1509 7.784 28.896C8.54133 28.6667 9.472 28.6667 11.3333 28.6667M11.3333 4C11.3333 4.53043 11.1226 5.03914 10.7475 5.41421C10.3725 5.78929 9.86377 6 9.33333 6C8.8029 6 8.29419 5.78929 7.91912 5.41421C7.54405 5.03914 7.33333 4.53043 7.33333 4C7.33333 3.46957 7.54405 2.96086 7.91912 2.58579C8.29419 2.21071 8.8029 2 9.33333 2C9.86377 2 10.3725 2.21071 10.7475 2.58579C11.1226 2.96086 11.3333 3.46957 11.3333 4ZM11.3333 4H21.3333C23.1947 4 24.1253 4 24.88 4.22933C25.7199 4.48385 26.4839 4.94167 27.1045 5.56221C27.725 6.18274 28.1828 6.94681 28.4373 7.78667C28.6667 8.54133 28.6667 9.472 28.6667 11.3333M46 53.3333C46 52.8029 46.2107 52.2942 46.5858 51.9191C46.9609 51.544 47.4696 51.3333 48 51.3333C48.5304 51.3333 49.0391 51.544 49.4142 51.9191C49.7893 52.2942 50 52.8029 50 53.3333C50 53.8638 49.7893 54.3725 49.4142 54.7475C49.0391 55.1226 48.5304 55.3333 48 55.3333C47.4696 55.3333 46.9609 55.1226 46.5858 54.7475C46.2107 54.3725 46 53.8638 46 53.3333ZM46 53.3333H36C34.1387 53.3333 33.208 53.3333 32.4533 53.104C31.6138 52.8497 30.8499 52.3923 30.2294 51.7723C29.6089 51.1522 29.1509 50.3887 28.896 49.5493C28.6667 48.792 28.6667 47.8613 28.6667 46" stroke="#AC7B3E" stroke-width="4" stroke-linejoin="round"/>
<path d="M11.4639 28.536C11.4639 20.3654 11.4639 16.28 14.0025 13.7414C16.5412 11.2027 20.6265 11.2027 28.7972 11.2027C36.9679 11.2027 41.0532 11.2027 43.5919 13.7414C46.1305 16.28 46.1305 20.3654 46.1305 28.536C46.1305 36.7067 46.1305 40.792 43.5919 43.3307C41.0532 45.8694 36.9679 45.8694 28.7972 45.8694C20.6265 45.8694 16.5412 45.8694 14.0025 43.3307C11.4639 40.792 11.4639 36.7067 11.4639 28.536Z" stroke="#AC7B3E" stroke-width="4" stroke-linejoin="round"/>
<path d="M29.9971 35.3334L26.1037 23.2773C25.9687 22.8969 25.7172 22.5687 25.3849 22.3394C25.0527 22.1101 24.6566 21.9913 24.2531 22C23.8499 21.9919 23.4544 22.1109 23.1227 22.3402C22.791 22.5695 22.5399 22.8974 22.4051 23.2773L18.5117 35.3334M36.6637 22V35.3334M19.9437 31.3334H28.5624" stroke="#AC7B3E" stroke-width="4" stroke-linecap="round" stroke-linejoin="round"/>
</svg>
