<svg width="21" height="23" viewBox="0 0 21 23" fill="none" xmlns="http://www.w3.org/2000/svg">
<path fill-rule="evenodd" clip-rule="evenodd" d="M19.5 6V4.509C19.5 3.675 18.825 3 17.991 3H15V4.5H13.5V3H7.5V4.5H6V3H3.009C2.175 3 1.5 3.675 1.5 4.509V19.491C1.5 20.325 2.175 21 3.009 21H17.991C18.825 21 19.5 20.325 19.5 19.491V7.5H1.5V6H19.5ZM15 1.5H17.991C19.653 1.5 21 2.8455 21 4.509V19.491C21.0002 19.8862 20.9225 20.2776 20.7714 20.6427C20.6202 21.0079 20.3986 21.3397 20.1191 21.6191C19.8397 21.8986 19.5079 22.1202 19.1427 22.2714C18.7776 22.4225 18.3862 22.5002 17.991 22.5H3.009C2.6138 22.5002 2.22243 22.4225 1.85727 22.2714C1.49212 22.1202 1.16033 21.8986 0.880876 21.6191C0.601426 21.3397 0.379792 21.0079 0.228645 20.6427C0.0774987 20.2776 -0.000196784 19.8862 3.74286e-07 19.491V4.509C3.74286e-07 2.847 1.3455 1.5 3.009 1.5H6V0H7.5V1.5H13.5V0H15V1.5ZM4.5 10.5H7.5V12H4.5V10.5ZM9 10.5H12V12H9V10.5ZM13.5 10.5H16.5V12H13.5V10.5ZM4.5 13.5H7.5V15H4.5V13.5ZM9 13.5H12V15H9V13.5ZM13.5 13.5H16.5V15H13.5V13.5ZM4.5 16.5H7.5V18H4.5V16.5ZM9 16.5H12V18H9V16.5ZM13.5 16.5H16.5V18H13.5V16.5Z" fill="white"/>
</svg>
