<svg width="35" height="62" viewBox="0 0 35 62" fill="none" xmlns="http://www.w3.org/2000/svg">
<path d="M11.517 43.6689H22.1837L27.6797 26.0796C28.4524 23.6086 28.6139 20.987 28.1503 18.4398C27.6868 15.8926 26.612 13.496 25.0184 11.4556L18.1117 2.6156C17.9621 2.42388 17.7707 2.26878 17.5521 2.16211C17.3336 2.05544 17.0936 2 16.8504 2C16.6072 2 16.3672 2.05544 16.1486 2.16211C15.93 2.26878 15.7387 2.42388 15.589 2.6156L8.68237 11.4556C7.08869 13.496 6.01395 15.8926 5.55041 18.4398C5.08686 20.987 5.24836 23.6086 6.02104 26.0796L11.517 43.6689ZM11.517 43.6689L3.51704 49.0023C3.51704 49.0023 -1.8163 38.3356 7.51704 31.6689M11.517 51.6689C11.517 57.0023 16.8504 59.6689 16.8504 59.6689C16.8504 59.6689 22.1837 57.0023 22.1837 51.6689M27.333 31.6689C36.6664 38.3356 31.333 49.0023 31.333 49.0023L23.333 43.6689" stroke="white" stroke-width="4" stroke-linecap="round" stroke-linejoin="round"/>
<path d="M16.8499 27.669C15.4354 27.669 14.0789 27.1071 13.0787 26.1069C12.0785 25.1067 11.5166 23.7501 11.5166 22.3357C11.5166 20.9212 12.0785 19.5646 13.0787 18.5644C14.0789 17.5642 15.4354 17.0023 16.8499 17.0023C18.2644 17.0023 19.621 17.5642 20.6212 18.5644C21.6214 19.5646 22.1833 20.9212 22.1833 22.3357C22.1833 23.7501 21.6214 25.1067 20.6212 26.1069C19.621 27.1071 18.2644 27.669 16.8499 27.669Z" stroke="white" stroke-width="4" stroke-linecap="round" stroke-linejoin="round"/>
</svg>
