<svg width="64" height="64" viewBox="0 0 64 64" fill="none" xmlns="http://www.w3.org/2000/svg">
<path d="M32.2689 0C32.2017 0 32.1076 1.14204e-07 32.0269 0.0162779C31.4084 0.131579 30.6689 0.708082 30.1849 2.02522C29.674 3.34101 29.5664 5.21702 30.0101 7.22596C30.4672 9.21049 31.4084 10.921 32.4571 11.9655C33.479 13.01 34.4067 13.2948 35.0252 13.1863C35.6706 13.0914 36.3832 12.4945 36.8672 11.1923C37.3782 9.88466 37.5126 7.98287 37.0555 5.99021C36.5849 3.98262 35.6571 2.28838 34.6084 1.25067C33.721 0.328268 32.9008 0 32.2689 0ZM47.7849 17.5677C46.3059 17.6084 44.437 18.0018 42.6218 18.775C40.5244 19.6974 38.9109 20.9318 38.0235 22.0984C37.1361 23.2243 37.0555 24.0788 37.3378 24.5807C37.6336 25.0826 38.4538 25.5574 40.0269 25.6252C41.6 25.7202 43.7244 25.3268 45.8084 24.4315C47.8924 23.5227 49.5328 22.2747 50.4202 21.1353C51.3076 20.0094 51.3748 19.1277 51.0924 18.6258C50.8101 18.1103 49.9765 17.6627 48.4034 17.6084C48.1882 17.5677 48 17.5677 47.7849 17.5677ZM29.4588 30.1694C28.5714 30.183 27.7647 30.2915 27.0387 30.4814C25.4521 30.8884 24.5378 31.6209 24.242 32.5026C23.9059 33.3843 24.242 34.4423 25.2908 35.5818C26.3933 36.6941 28.2084 37.7657 30.4672 38.3626C32.7126 38.9594 34.8773 38.9458 36.4908 38.5118C38.1176 38.0913 39.0319 37.3452 39.3277 36.4771C39.637 35.5953 39.3277 34.5509 38.2387 33.3979C37.1765 32.2855 35.3613 31.2139 33.1025 30.6306C31.8252 30.2915 30.5748 30.1559 29.4588 30.1694ZM51.0655 38.0506L42.7563 42.0251C43.321 42.0522 44.7328 42.0929 44.7328 42.0929L45.6202 43.273L52.9748 39.407L51.0655 38.0506ZM43.7378 38.0641L36.0202 41.7538C36.7597 41.7944 38.5076 41.8216 39.2067 41.8623L45.9025 38.661L43.7378 38.0641ZM56.1882 39.5291L46.7092 44.6024L48.6588 47.139L58.6756 41.0891L56.1882 39.5291ZM18.7025 40.7635C18.2954 40.7627 17.8895 40.8082 17.4924 40.8992C7.87899 43.1374 2.20504 43.3273 0.52437 43.3273H0V57.9094C0 57.9094 1.55966 57.6788 4.15462 57.6652C9.16975 57.6652 18.0034 58.5334 26.6084 63.6066C27.0655 63.8915 28.0471 64 29.2706 64C32.5378 64 37.4992 63.2132 38.642 62.7792C50.1513 58.4249 64 46.4743 64 46.4743L59.6303 42.6219C59.6303 42.6219 48.9008 49.5264 47.5429 50.1911C35.2941 56.2545 25.3714 52.4699 25.3714 52.4699C25.3714 52.4699 41.4924 52.8769 46.6689 48.7668L43.6303 44.1547C43.6303 44.1547 32.4975 43.8427 28.5311 43.3137C26.4605 43.0424 21.9832 40.7635 18.7025 40.7635Z" fill="#AC7B3E"/>
</svg>
