<svg xmlns="http://www.w3.org/2000/svg"  viewBox="0 0 24 24" width="24px" height="24px"><path d="M3.007 21v-1.96l.107-.174c.04-.066 2.08-3.36 6.72-4.826l.547-.174 2.32 3.574c-.107.466-.2 1.066-.2 1.56 0 .707.107 1.373.32 2H3.007zM11.993 11c2.213 0 4-1.8 4-4V6c0-2.213-1.787-4-4-4-2.2 0-4 1.787-4 4v1C7.993 9.2 9.793 11 11.993 11zM4.06 10.933c0 0 1.587.307 2.387-.48.8-.8.493-2.4.493-2.4s-1.6-.307-2.387.493C3.753 9.347 4.06 10.933 4.06 10.933zM14.007 19c0-2.76 2.227-5 5-5 2.76 0 5 2.24 5 5s-2.24 5-5 5C16.233 24 14.007 21.76 14.007 19zM18.473 21.8l3.627-4.267-.76-.653-3.013 3.534-1.8-1.44L15.9 19.76 18.473 21.8z"/></svg>