<?xml version="1.0"?><svg xmlns="http://www.w3.org/2000/svg"  viewBox="0 0 128 128" width="64px" height="64px">    <path d="M 55 1 C 49.5 1 45 5.5 45 11 L 45 46 L 14 46 C 6.8 46 1 51.8 1 59 L 1 114 C 1 121.2 6.8 127 14 127 L 56.900391 127 C 58.600391 127 59.900391 125.7 59.900391 124 C 59.900391 122.3 58.600391 121 56.900391 121 L 14 121 C 10.1 121 7 117.9 7 114 L 7 59 C 7 55.1 10.1 52 14 52 L 69 52 C 72.9 52 76 55.1 76 59 L 76 103.19922 C 76 110.09922 78.8 116.4 83.5 121 L 81.099609 121 C 77.299609 121 73.799609 119.50039 71.099609 116.90039 C 69.899609 115.70039 68.000391 115.70039 66.900391 116.90039 C 65.700391 118.10039 65.700391 119.99961 66.900391 121.09961 C 70.700391 124.89961 75.699609 127 81.099609 127 L 94 127 C 95.5 127 96.7 125.9 97 124.5 C 97.2 123 96.4 121.59922 95 121.19922 C 87.3 118.59922 82.099609 111.39922 82.099609 103.19922 L 82.099609 76 L 98 76 C 102.5 76 106.89961 74.2 110.09961 71 C 113.29961 74.2 117.59922 76 122.19922 76 L 124.59961 76 C 127.29961 76 128.59922 72.700781 126.69922 70.800781 C 122.49922 66.800781 120 61.199219 120 55.199219 L 120 11 C 120 5.5 115.5 1 110 1 L 55 1 z M 83 10 C 84.2 10 85.400781 10.800391 85.800781 11.900391 L 100.80078 51.900391 C 101.40078 53.500391 100.59961 55.200781 99.099609 55.800781 C 98.699609 55.900781 98.4 56 98 56 C 96.8 56 95.599219 55.299609 95.199219 54.099609 L 92.199219 46 L 69 46 L 67.400391 46 L 80.199219 11.900391 C 80.599219 10.700391 81.8 10 83 10 z M 83 23.5 L 76.099609 42 L 89.900391 42 L 83 23.5 z M 37.501953 60.646484 C 36.119727 60.658789 34.862109 61.6 34.599609 63 C 34.499609 63.3 34.099219 65.400391 33.699219 68.900391 L 24.599609 68.900391 C 22.899609 68.900391 21.599609 70.200391 21.599609 71.900391 C 21.599609 73.600391 22.899609 74.900391 24.599609 74.900391 L 33.199219 74.900391 C 32.999219 77.300391 33 80.1 33 83 C 30.8 83.9 28.800391 85.000391 26.900391 86.400391 C 22.600391 89.600391 19.800781 93.900781 19.300781 98.300781 C 18.900781 101.80078 19.899219 105.2 22.199219 108 C 24.899219 111.3 28.600781 112.69922 32.300781 112.69922 C 35.400781 112.69922 38.500391 111.70039 40.900391 109.90039 C 47.000391 105.40039 51.299609 95.899609 53.599609 89.599609 C 54.099609 90.099609 54.500391 90.599219 54.900391 91.199219 C 58.900391 97.299219 55.900391 101.00039 50.400391 106.40039 C 50.100391 106.70039 49.700391 107.00039 49.400391 107.40039 C 48.200391 108.60039 48.200391 110.49961 49.400391 111.59961 C 50.600391 112.79961 52.499609 112.79961 53.599609 111.59961 L 54.5 110.69922 C 59 106.19922 66.700391 98.700391 59.900391 87.900391 C 58.800391 86.100391 57.3 84.600391 55.5 83.400391 C 55.5 83.300391 55.599609 83.199219 55.599609 83.199219 C 55.999609 81.599219 55.1 80 53.5 79.5 C 52.1 79.1 50.6 79.799609 50 81.099609 C 49.7 80.999609 49.399609 81.000391 49.099609 80.900391 C 45.899609 80.300391 42.400391 80.399609 38.900391 81.099609 C 38.900391 78.799609 38.999609 76.700781 39.099609 74.800781 L 59.800781 74.800781 C 61.500781 74.800781 62.800781 73.500781 62.800781 71.800781 C 62.800781 70.100781 61.500781 68.800781 59.800781 68.800781 L 39.699219 68.800781 C 40.099219 65.900781 40.400391 64.199219 40.400391 64.199219 C 40.700391 62.599219 39.699609 60.999219 38.099609 60.699219 C 37.899609 60.661719 37.699414 60.644727 37.501953 60.646484 z M 44.599609 86.5 C 45.799609 86.5 46.9 86.600781 48 86.800781 L 48.199219 86.800781 C 46.599219 91.200781 44.199219 96.700781 41.199219 100.80078 C 39.999219 96.200781 39.399609 91.599219 39.099609 87.199219 C 40.999609 86.799219 42.799609 86.5 44.599609 86.5 z M 33.199219 89.300781 C 33.599219 94.500781 34.600781 100 36.300781 105.5 C 33.700781 106.9 29.500781 107.3 26.800781 104 C 25.500781 102.5 24.999219 100.70078 25.199219 98.800781 C 25.499219 96.100781 27.500391 93.2 30.400391 91 C 31.300391 90.4 32.199219 89.800781 33.199219 89.300781 z M 107 121 A 3 3 0 0 0 104 124 A 3 3 0 0 0 107 127 A 3 3 0 0 0 110 124 A 3 3 0 0 0 107 121 z"/></svg>