<svg xmlns="http://www.w3.org/2000/svg"  viewBox="0 0 48 48" width="48px" height="48px"><path d="M 24 9 C 20.421992 9 17.5 11.921995 17.5 15.5 C 17.5 19.078005 20.421992 22 24 22 C 27.578008 22 30.5 19.078005 30.5 15.5 C 30.5 11.921995 27.578008 9 24 9 z M 24 11 C 26.497128 11 28.5 13.002873 28.5 15.5 C 28.5 17.997127 26.497128 20 24 20 C 21.502872 20 19.5 17.997127 19.5 15.5 C 19.5 13.002873 21.502872 11 24 11 z M 10 14 C 8.4166671 14 7.1018922 14.629756 6.2519531 15.585938 C 5.402014 16.542119 5 17.777778 5 19 C 5 20.222222 5.402014 21.457881 6.2519531 22.414062 C 7.1018922 23.370244 8.4166671 24 10 24 C 11.583333 24 12.898108 23.370244 13.748047 22.414062 C 14.597986 21.457881 15 20.222222 15 19 C 15 17.777778 14.597986 16.542119 13.748047 15.585938 C 12.898108 14.629755 11.583333 14 10 14 z M 38 14 C 36.416667 14 35.101892 14.629756 34.251953 15.585938 C 33.402014 16.542119 33 17.777778 33 19 C 33 20.222222 33.402014 21.457881 34.251953 22.414062 C 35.101892 23.370244 36.416667 24 38 24 C 39.583333 24 40.898108 23.370244 41.748047 22.414062 C 42.597986 21.457881 43 20.222222 43 19 C 43 17.777778 42.597986 16.542119 41.748047 15.585938 C 40.898108 14.629755 39.583333 14 38 14 z M 10 16 C 11.083333 16 11.768559 16.370244 12.251953 16.914062 C 12.735347 17.457881 13 18.222222 13 19 C 13 19.777778 12.735347 20.542119 12.251953 21.085938 C 11.768559 21.629756 11.083333 22 10 22 C 8.9166674 22 8.2314405 21.629756 7.7480469 21.085938 C 7.2646532 20.542119 7 19.777778 7 19 C 7 18.222222 7.2646532 17.457881 7.7480469 16.914062 C 8.2314405 16.370244 8.9166674 16 10 16 z M 38 16 C 39.083333 16 39.768559 16.370244 40.251953 16.914062 C 40.735347 17.457881 41 18.222222 41 19 C 41 19.777778 40.735347 20.542119 40.251953 21.085938 C 39.768559 21.629756 39.083333 22 38 22 C 36.916667 22 36.231441 21.629756 35.748047 21.085938 C 35.264653 20.542119 35 19.777778 35 19 C 35 18.222222 35.264653 17.457881 35.748047 16.914062 C 36.231441 16.370244 36.916667 16 38 16 z M 24 25 C 20.98398 25 18.15819 26.088758 15.958984 27.943359 C 14.273224 26.712424 12.200306 26 10 26 C 5.6853529 26 1.8435826 28.728194 0.49804688 32.771484 L 0.1640625 33.771484 C -0.52259829 35.835776 1.08905 38 3.2675781 38 L 8 38 A 1.0001 1.0001 0 1 0 8 36 L 3.2675781 36 C 2.3661063 36 1.7931608 35.214005 2.0625 34.404297 L 2.3945312 33.402344 C 3.4649956 30.185634 6.5266471 28 10 28 C 11.657136 28 13.216988 28.504511 14.515625 29.375 C 13.476177 30.590912 12.660011 32.017617 12.142578 33.603516 L 11.716797 34.904297 C 10.905862 37.390365 12.799011 40 15.414062 40 L 32.585938 40 C 35.200989 40 37.093524 37.390386 36.28125 34.904297 L 35.857422 33.603516 C 35.340302 32.017547 34.523826 30.590925 33.484375 29.375 C 34.783012 28.504511 36.342864 28 38 28 C 41.473353 28 44.535004 30.185634 45.605469 33.402344 L 45.9375 34.404297 C 46.206839 35.214005 45.633894 36 44.732422 36 L 40 36 A 1.0001 1.0001 0 1 0 40 38 L 44.732422 38 C 46.91095 38 48.522598 35.835776 47.835938 33.771484 L 47.501953 32.771484 C 46.156417 28.728194 42.314647 26 38 26 C 35.799694 26 33.726776 26.712424 32.041016 27.943359 C 29.841706 26.088774 27.01602 25 24 25 z M 24 27 C 28.536131 27 32.54908 29.912516 33.955078 34.224609 L 34.380859 35.525391 C 34.788586 36.773301 33.898885 38 32.585938 38 L 15.414062 38 C 14.101116 38 13.212075 36.773323 13.619141 35.525391 L 14.042969 34.224609 C 15.449932 29.912358 19.463869 27 24 27 z"/></svg>