<svg xmlns="http://www.w3.org/2000/svg" xmlns:xlink="http://www.w3.org/1999/xlink" viewBox="0,0,256,256" width="35px" height="35px" fill-rule="nonzero"><g fill="#ffffff" fill-rule="nonzero" stroke="none" stroke-width="1" stroke-linecap="butt" stroke-linejoin="miter" stroke-miterlimit="10" stroke-dasharray="" stroke-dashoffset="0" font-family="none" font-weight="none" font-size="none" text-anchor="none" style="mix-blend-mode: normal"><g transform="scale(5.12,5.12)"><path d="M12.5,2c-3.02734,0 -5.5,2.47266 -5.5,5.5c0,3.02734 2.47266,5.5 5.5,5.5c3.02734,0 5.5,-2.47266 5.5,-5.5c0,-3.02734 -2.47266,-5.5 -5.5,-5.5zM37.51563,2c-3.02734,0 -5.5,2.47266 -5.5,5.5c0,3.02734 2.47266,5.5 5.5,5.5c3.02734,0 5.5,-2.47266 5.5,-5.5c0,-3.02734 -2.47266,-5.5 -5.5,-5.5zM12.5,4c1.94531,0 3.5,1.55469 3.5,3.5c0,1.94531 -1.55469,3.5 -3.5,3.5c-1.94531,0 -3.5,-1.55469 -3.5,-3.5c0,-1.94531 1.55469,-3.5 3.5,-3.5zM37.51563,4c1.94531,0 3.5,1.55469 3.5,3.5c0,1.94531 -1.55469,3.5 -3.5,3.5c-1.94531,0 -3.5,-1.55469 -3.5,-3.5c0,-1.94531 1.55469,-3.5 3.5,-3.5zM23.61328,8c-1,0 -1.61328,0.78516 -1.61328,1.67188c0,1.76953 3.5,4.32813 3.5,4.32813c0,0 3.5,-2.55859 3.5,-4.32812c0,-0.88672 -0.78125,-1.67187 -1.78125,-1.67187c-1,0 -1.80078,1 -1.80078,1c0,0 -0.80469,-1 -1.80469,-1zM8.08594,14c-2.77344,0 -5.08594,2.17969 -5.08594,5v12.41797c0,0.10156 0.01172,0.19922 0.03906,0.29688c0.09766,0.70703 0.49609,1.31641 1.00391,1.68359c0.58203,0.41797 1.26563,0.60156 1.95703,0.60156c0.33984,0 0.67578,-0.04687 1,-0.14062v10.84766c0,1.92188 1.69922,3.29297 3.5,3.29297c0.96875,0 1.82031,-0.41797 2.44922,-1.0625c0.66016,0.66016 1.58594,1.0625 2.55078,1.0625c1.80078,0 3.5,-1.37109 3.5,-3.29297v-18.6875l1.72266,3.25l-0.01172,-0.02734c0.30859,0.62109 0.78125,1.17188 1.43359,1.49609c0.65625,0.32813 1.48438,0.39063 2.26172,0.09766c0.22656,-0.08203 0.42188,-0.20703 0.59766,-0.34375c0.18359,0.14063 0.38281,0.26172 0.60938,0.34766c1.49609,0.55078 3.04688,-0.28906 3.69141,-1.59375l1.71094,-3.23047v18.69141c0,1.92188 1.69922,3.29297 3.5,3.29297c0.96484,0 1.89063,-0.40234 2.55078,-1.0625c0.62891,0.64453 1.48047,1.0625 2.44922,1.0625c1.80078,0 3.5,-1.37109 3.5,-3.29297v-10.84766c0.32422,0.09375 0.66016,0.14063 1,0.14063c0.69141,0 1.37891,-0.18359 1.95703,-0.60156c0.51563,-0.36719 0.91406,-0.98437 1.00781,-1.69922c0.02344,-0.08984 0.03516,-0.1875 0.03516,-0.28125v-12.41797c0,-2.82031 -2.3125,-5 -5.08203,-5h-8.625c-2.08203,0 -4.04687,1.17578 -4.83594,3.21484l-3.46875,8.16406l-3.46094,-8.16016c-0.78516,-2.04297 -2.75391,-3.21875 -4.83594,-3.21875zM8.08594,16h8.62109c1.36719,0 2.48438,0.67188 2.96875,1.93359c0.00391,0.01172 0.00781,0.01953 0.01172,0.03125l4.19141,9.875c0,0.00391 0.00391,0.00781 0.00391,0.01172c0.10938,0.25391 0.13281,0.57031 0.07422,0.78125c-0.05469,0.21094 -0.11719,0.28125 -0.25391,0.33203c-0.30469,0.11328 -0.46875,0.08203 -0.65625,-0.01172c-0.19141,-0.09375 -0.39844,-0.30078 -0.54297,-0.59375c-0.00391,-0.01172 -0.00781,-0.01953 -0.01562,-0.02734l-3.55859,-6.71484c-0.05078,-0.125 -0.125,-0.23828 -0.21484,-0.33203c-0.00391,-0.00391 -0.00391,-0.00391 -0.00781,-0.00391c-0.01953,-0.02344 -0.04297,-0.04297 -0.06641,-0.0625c-0.32031,-0.27734 -0.77734,-0.32422 -1.14453,-0.11719c-0.36719,0.20703 -0.56641,0.62109 -0.49609,1.03906v22.56641c0,0.64453 -0.75781,1.29297 -1.5,1.29297c-0.73437,0 -1.48047,-0.63281 -1.49609,-1.26953c0.00391,-0.05078 0,-0.10156 -0.00391,-0.15234v-11.57812c0.00391,-0.26953 -0.10156,-0.53125 -0.29297,-0.72266c-0.19141,-0.19141 -0.45312,-0.29687 -0.72266,-0.29297c-0.55078,0.01172 -0.99219,0.46484 -0.98437,1.01563v11.60938c-0.14062,0.80859 -0.77344,1.39063 -1.5,1.39063c-0.74219,0 -1.5,-0.64844 -1.5,-1.29297v-22.70703c0.00391,-0.26953 -0.10156,-0.53125 -0.29297,-0.72266c-0.19141,-0.19141 -0.45312,-0.29687 -0.72266,-0.29297c-0.55078,0.01172 -0.99219,0.46484 -0.98437,1.01563v9.41797c0,0.17188 -0.03906,0.23438 -0.21094,0.35938c-0.16797,0.12109 -0.48047,0.22266 -0.78906,0.22266c-0.30859,0 -0.62109,-0.10156 -0.78906,-0.22266c-0.17187,-0.125 -0.21094,-0.1875 -0.21094,-0.35937v-12.41797c0,-1.76562 1.31641,-3 3.08594,-3zM33.30859,16h8.625c1.76563,0 3.08203,1.23438 3.08203,3v12.41797c0,0.17188 -0.03906,0.23438 -0.20703,0.35938c-0.17187,0.12109 -0.48437,0.22266 -0.79297,0.22266c-0.30859,0 -0.62109,-0.10156 -0.79297,-0.22266c-0.16797,-0.125 -0.20703,-0.1875 -0.20703,-0.35937v-9.41797c0.00391,-0.26953 -0.10156,-0.53125 -0.29297,-0.72266c-0.19141,-0.19141 -0.45312,-0.29687 -0.72266,-0.29297c-0.55078,0.01172 -0.99219,0.46484 -0.98437,1.01563v22.70703c0,0.64453 -0.75781,1.29297 -1.5,1.29297c-0.72656,0 -1.35937,-0.58594 -1.5,-1.39844v-11.60156c0.00391,-0.26953 -0.10156,-0.53125 -0.29297,-0.72266c-0.19141,-0.19141 -0.45312,-0.29687 -0.72266,-0.29297c-0.55078,0.01172 -0.99219,0.46484 -0.98437,1.01563v11.70703c0,0 0,0.00391 0,0.00781c-0.00391,0.64063 -0.76172,1.28516 -1.5,1.28516c-0.74219,0 -1.5,-0.64844 -1.5,-1.29297v-22.56641c0.07422,-0.43359 -0.14453,-0.86719 -0.53906,-1.0625c-0.39453,-0.19922 -0.87109,-0.11328 -1.17578,0.20703c-0.08984,0.09375 -0.16406,0.20703 -0.21094,0.33203l-3.5625,6.71484c-0.00781,0.00781 -0.01172,0.01563 -0.01562,0.02344c-0.26172,0.52734 -0.73828,0.77734 -1.21094,0.60547c-0.16797,-0.0625 -0.21875,-0.13281 -0.26953,-0.32812c-0.05078,-0.19531 -0.02734,-0.50391 0.09375,-0.75781c0.00391,-0.01172 0.00781,-0.02344 0.01172,-0.03516l4.19141,-9.875c0.00391,-0.00781 0.00781,-0.01953 0.01172,-0.02734c0.48438,-1.26172 1.60156,-1.9375 2.96875,-1.9375z"></path></g></g></svg>