<svg xmlns="http://www.w3.org/2000/svg" xmlns:xlink="http://www.w3.org/1999/xlink" viewBox="0,0,256,256" width="50px" height="50px" fill-rule="nonzero"><g fill="#ffffff" fill-rule="nonzero" stroke="none" stroke-width="1" stroke-linecap="butt" stroke-linejoin="miter" stroke-miterlimit="10" stroke-dasharray="" stroke-dashoffset="0" font-family="none" font-weight="none" font-size="none" text-anchor="none" style="mix-blend-mode: normal"><g transform="scale(5.12,5.12)"><path d="M28,0c-5.51562,0 -10,4.48438 -10,10c0,8.62109 8.87109,19.21094 9.25,19.65625c0.19141,0.22266 0.45703,0.34375 0.75,0.34375c0.29688,0 0.58984,-0.14844 0.78125,-0.375c0.375,-0.45312 9.21875,-11.19922 9.21875,-19.625c0,-5.51562 -4.48437,-10 -10,-10zM0.96875,6c-0.16797,0.00781 -0.35156,0.06641 -0.5,0.15625c-0.29297,0.18359 -0.46875,0.49609 -0.46875,0.84375v36c0,0.37891 0.22266,0.73438 0.5625,0.90625l12,6c0.28125,0.14063 0.59375,0.14063 0.875,0l11.59375,-5.78125l12.5625,5.78125c0.13281,0.0625 0.26172,0.09375 0.40625,0.09375c0.16406,0 0.32031,-0.04297 0.46875,-0.125l11,-6c0.32031,-0.17578 0.53125,-0.50781 0.53125,-0.875v-36c0,-0.35156 -0.19922,-0.69531 -0.5,-0.875c-0.30469,-0.17969 -0.66016,-0.16797 -0.96875,0l-8.5625,4.65625c-0.48047,8.80859 -8.69141,18.96484 -9.65625,20.125c-0.57031,0.68359 -1.41406,1.08984 -2.3125,1.09375c-0.88281,0 -1.70703,-0.38672 -2.28125,-1.0625c-0.97656,-1.15234 -9.37109,-11.35547 -9.6875,-20.40625l-3,1.375l-11.59375,-5.8125c-0.15625,-0.07812 -0.30078,-0.10156 -0.46875,-0.09375zM28,7c2.21094,0 4,1.78906 4,4c0,2.21094 -1.78906,4 -4,4c-2.21094,0 -4,-1.78906 -4,-4c0,-2.21094 1.78906,-4 4,-4z"></path></g></g></svg>