<svg xmlns="http://www.w3.org/2000/svg" xmlns:xlink="http://www.w3.org/1999/xlink" viewBox="0,0,256,256" width="24px" height="24px" fill-rule="nonzero"><g fill="none" fill-rule="nonzero" stroke="none" stroke-width="1" stroke-linecap="butt" stroke-linejoin="miter" stroke-miterlimit="10" stroke-dasharray="" stroke-dashoffset="0" font-family="none" font-weight="none" font-size="none" text-anchor="none" style="mix-blend-mode: normal"><g transform="scale(2.61224,2.61224)"><g><g><path d="M49,13.8c19.44042,0 35.2,15.75958 35.2,35.2c0,19.44042 -15.75958,35.2 -35.2,35.2c-19.44042,0 -35.2,-15.75958 -35.2,-35.2c-0.02666,-9.34377 3.67334,-18.31252 10.28041,-24.91959c6.60707,-6.60707 15.57582,-10.30707 24.91959,-10.28041zM43.5,64.3l25,-25l-5.7,-5.6l-19.3,19.3l-8.3,-8.2l-5.7,5.6z" fill="#3bb54a"></path><path d="M68.5,39.3l-25,25l-14,-13.9l5.7,-5.6l8.3,8.2l19.3,-19.3z" fill="#ffffff"></path></g><g fill="#3bb54a"><g><path d="M49,86.2c-20.54499,0 -37.2,-16.65501 -37.2,-37.2c0,-20.54499 16.65501,-37.2 37.2,-37.2c20.54499,0 37.2,16.65501 37.2,37.2c-0.05495,20.52219 -16.67781,37.14505 -37.2,37.2zM49,15.8c-18.33585,0 -33.2,14.86415 -33.2,33.2c0,18.33585 14.86415,33.2 33.2,33.2c18.33585,0 33.2,-14.86415 33.2,-33.2c0,-18.33585 -14.86415,-33.2 -33.2,-33.2z"></path></g><g><path d="M43.5,66.3c-0.56213,0.01983 -1.10662,-0.19797 -1.5,-0.6l-13.9,-13.9c-0.3922,-0.35985 -0.61548,-0.86772 -0.61548,-1.4c0,-0.53228 0.22327,-1.04015 0.61548,-1.4l5.7,-5.7c0.79716,-0.713 2.00284,-0.713 2.8,0l6.9,6.9l17.9,-17.9c0.35985,-0.3922 0.86772,-0.61548 1.4,-0.61548c0.53228,0 1.04015,0.22327 1.4,0.61548l5.7,5.6c0.3922,0.35985 0.61548,0.86772 0.61548,1.4c0,0.53228 -0.22327,1.04015 -0.61548,1.4l-25,25c-0.36926,0.37683 -0.87246,0.59249 -1.4,0.6zM32.4,50.4l11.1,11.1l22.1,-22.2l-2.8,-2.8l-17.9,17.9c-0.81149,0.77461 -2.08851,0.77461 -2.9,0l-6.8,-6.8z"></path></g></g></g></g></g></svg>