<svg xmlns="http://www.w3.org/2000/svg"  viewBox="0 0 30 30" width="30px" height="30px"><path d="M 13.011719 4.9921875 C 12.459719 4.9921875 12.011719 5.4401875 12.011719 5.9921875 L 12.011719 22.992188 L 17.011719 22.992188 L 17.011719 5.9921875 C 17.011719 5.4401875 16.563719 4.9921875 16.011719 4.9921875 L 13.011719 4.9921875 z M 1.0117188 6.9921875 L 1.0117188 26.992188 L 26.011719 26.992188 L 26.011719 24.992188 L 3.0117188 24.992188 L 3.0117188 6.9921875 L 1.0117188 6.9921875 z M 20.011719 6.9921875 C 19.459719 6.9921875 19.011719 7.4401875 19.011719 7.9921875 L 19.011719 22.992188 L 24.011719 22.992188 L 24.011719 7.9921875 C 24.011719 7.4401875 23.563719 6.9921875 23.011719 6.9921875 L 20.011719 6.9921875 z M 6.0117188 10.992188 C 5.4597187 10.992188 5.0117188 11.440188 5.0117188 11.992188 L 5.0117188 22.992188 L 10.011719 22.992188 L 10.011719 11.992188 C 10.011719 11.440188 9.5637187 10.992188 9.0117188 10.992188 L 6.0117188 10.992188 z"/></svg>