<svg xmlns="http://www.w3.org/2000/svg" xmlns:xlink="http://www.w3.org/1999/xlink" viewBox="0,0,256,256" width="50px" height="50px" fill-rule="nonzero"><g fill="#99a1af" fill-rule="nonzero" stroke="none" stroke-width="1" stroke-linecap="butt" stroke-linejoin="miter" stroke-miterlimit="10" stroke-dasharray="" stroke-dashoffset="0" font-family="none" font-weight="none" font-size="none" text-anchor="none" style="mix-blend-mode: normal"><g transform="scale(5.12,5.12)"><path d="M25,2c-2.47266,0 -4.68359,0.73047 -6.3125,1.96875c-1.35547,1.02734 -2.30859,2.43359 -2.59375,4.03125h-13.09375c-1.64453,0 -3,1.35547 -3,3v16.8125c-0.00781,0.0625 -0.00781,0.125 0,0.1875v17c0,1.64453 1.35547,3 3,3h44c1.64453,0 3,-1.35547 3,-3v-17.09375c0,-0.03125 0,-0.0625 0,-0.09375v-16.8125c0,-1.64453 -1.35547,-3 -3,-3h-13.09375c-0.28516,-1.59766 -1.23828,-3.00391 -2.59375,-4.03125c-1.62891,-1.23828 -3.83984,-1.96875 -6.3125,-1.96875zM25,4c2.08203,0 3.86328,0.62891 5.09375,1.5625c0.91406,0.69531 1.52734,1.51563 1.78125,2.4375h-13.75c0.25391,-0.92187 0.86719,-1.74219 1.78125,-2.4375c1.23047,-0.93359 3.01172,-1.5625 5.09375,-1.5625zM3,10h44c0.56641,0 1,0.43359 1,1v16.8125c-0.00391,0.04297 -0.00391,0.08203 0,0.125v0.0625c0,0.56641 -0.43359,1 -1,1h-17c0,-1.64453 -1.35547,-3 -3,-3h-4c-1.64453,0 -3,1.35547 -3,3h-17c-0.56641,0 -1,-0.43359 -1,-1c0.00781,-0.0625 0.00781,-0.125 0,-0.1875v-16.8125c0,-0.56641 0.43359,-1 1,-1zM23,28h4c0.56641,0 1,0.43359 1,1v0.8125c0,0.03125 0,0.0625 0,0.09375v0.09375c-0.00781,0.07422 -0.00781,0.14453 0,0.21875v0.78125c0,0.56641 -0.43359,1 -1,1h-4c-0.56641,0 -1,-0.43359 -1,-1v-0.8125c0.02734,-0.13281 0.02734,-0.27344 0,-0.40625v-0.78125c0,-0.56641 0.43359,-1 1,-1zM2,30.8125c0.31641,0.11328 0.64844,0.1875 1,0.1875h17c0,1.64453 1.35547,3 3,3h4c1.64453,0 3,-1.35547 3,-3h17c0.35156,0 0.68359,-0.07422 1,-0.1875v14.1875c0,0.56641 -0.43359,1 -1,1h-44c-0.56641,0 -1,-0.43359 -1,-1z"></path></g></g></svg>