<svg xmlns="http://www.w3.org/2000/svg" xmlns:xlink="http://www.w3.org/1999/xlink" viewBox="0,0,256,256" width="35px" height="35px" fill-rule="evenodd"><g fill="#ffffff" fill-rule="evenodd" stroke="none" stroke-width="1" stroke-linecap="butt" stroke-linejoin="miter" stroke-miterlimit="10" stroke-dasharray="" stroke-dashoffset="0" font-family="none" font-weight="none" font-size="none" text-anchor="none" style="mix-blend-mode: normal"><g transform="scale(10.66667,10.66667)"><path d="M16.00391,4c-2.06999,0 -3.74805,1.67806 -3.74805,3.74805c0,2.06999 1.67806,3.74805 3.74805,3.74805c2.06999,0 3.74805,-1.67806 3.74805,-3.74805c0,-2.06999 -1.67806,-3.74805 -3.74805,-3.74805zM7.99609,6c-2.06999,0 -3.74805,1.67806 -3.74805,3.74805c0,2.06999 1.67806,3.74805 3.74805,3.74805c2.06999,0 3.74805,-1.67806 3.74805,-3.74805c0,-2.06999 -1.67806,-3.74805 -3.74805,-3.74805zM16.00391,11.98633c-2.094,0 -3.94806,0.5315 -5.16406,1.3125c1.193,0.272 2.21947,0.7017 2.98047,1.2207c1.288,0.879 1.92188,2.04284 1.92188,3.21484v0.26563h5.6582c0.358,0 0.70208,-0.14153 0.95508,-0.39453c0.253,-0.253 0.39453,-0.59708 0.39453,-0.95508v-0.91602c0,-0.88 -0.51637,-1.72767 -1.48437,-2.38867c-1.188,-0.81 -3.10072,-1.35937 -5.26172,-1.35937zM7.99609,13.98633c-2.161,0 -4.07372,0.54937 -5.26172,1.35938c-0.968,0.661 -1.48437,1.50867 -1.48437,2.38867v0.91602c0,0.358 0.14153,0.70208 0.39453,0.95508c0.253,0.253 0.59708,0.39453 0.95508,0.39453h10.79297c0.358,0 0.70208,-0.14153 0.95508,-0.39453c0.253,-0.253 0.39453,-0.59708 0.39453,-0.95508v-0.91602c0,-0.88 -0.51637,-1.72767 -1.48438,-2.38867c-1.188,-0.81 -3.10072,-1.35937 -5.26172,-1.35937z"></path></g></g></svg>