<svg xmlns="http://www.w3.org/2000/svg" xmlns:xlink="http://www.w3.org/1999/xlink" viewBox="0,0,256,256" width="64px" height="64px" fill-rule="nonzero"><g fill="#ffffff" fill-rule="nonzero" stroke="none" stroke-width="1" stroke-linecap="butt" stroke-linejoin="miter" stroke-miterlimit="10" stroke-dasharray="" stroke-dashoffset="0" font-family="none" font-weight="none" font-size="none" text-anchor="none" style="mix-blend-mode: normal"><g transform="scale(2,2)"><path d="M124,41h-25c-1.7,0 -3,1.3 -3,3c0,1.7 1.3,3 3,3h17.8l-41.4,41.3c-0.8,0.8 -2,0.8 -2.8,0l-22.9,-22.9c-3.1,-3.1 -8.2,-3.1 -11.3,0l-36.5,36.5c-1.2,1.2 -1.2,3.1 0,4.2c1.2,1.2 3.1,1.2 4.2,0l36.5,-36.5c0.8,-0.8 2,-0.8 2.8,0l22.9,22.9c1.6,1.6 3.6,2.3 5.7,2.3c2.1,0 4.1,-0.8 5.7,-2.3l41.3,-41.3v17.8c0,1.7 1.3,3 3,3c1.7,0 3,-1.3 3,-3v-25c0,-1.7 -1.3,-3 -3,-3z"></path></g></g></svg>