<svg width="64" height="64" viewBox="0 0 64 64" fill="none" xmlns="http://www.w3.org/2000/svg">
<path fill-rule="evenodd" clip-rule="evenodd" d="M1.61472 3.19999C1.40337 3.19805 1.19373 3.238 0.997905 3.31754C0.802082 3.39707 0.623958 3.51462 0.473821 3.66339C0.323685 3.81215 0.204512 3.98919 0.123185 4.18428C0.041859 4.37937 -8.94349e-06 4.58863 1.43298e-09 4.79999L1.43298e-09 49.7856C5.11686e-05 50.0905 0.0872475 50.3891 0.251319 50.6462C0.41539 50.9032 0.649502 51.108 0.92608 51.2365L21.1923 60.6509C21.4081 60.7512 21.6436 60.8022 21.8816 60.8C22.1098 60.7982 22.335 60.7475 22.5421 60.6515L30.9005 56.7673C31.0406 55.4573 31.2698 54.1555 31.6365 52.8973L22.8141 56.9965L22.5779 15.6486L40.9299 7.12319L41.0285 24.3059C41.6262 23.8271 42.2665 23.404 42.9414 23.0419L42.8486 6.89663L60.8 15.2352V33.648C60.8032 33.8037 60.8032 33.9595 60.8 34.1152V45.5674C61.7389 46.2778 62.5875 47.1027 63.2896 48.055C63.5456 48.3974 63.7798 48.7514 64 49.1123V14.215C64.0001 13.91 63.9129 13.6113 63.7489 13.3541C63.5848 13.0969 63.3506 12.892 63.0739 12.7635L42.8077 3.34911C42.5917 3.24867 42.356 3.19772 42.1178 3.19999C41.89 3.20199 41.6652 3.25262 41.4586 3.34847L21.8662 12.4499L2.27392 3.34911C2.06731 3.25304 1.84256 3.20219 1.61472 3.19999ZM3.2 7.30751L20.656 15.4163L20.8934 56.9843L3.2 48.7629V7.30751Z" fill="#AC7B3E"/>
<path d="M48.6403 24.1721C43.3379 24.1721 39.0403 28.4704 39.0403 33.7721C39.0403 39.0739 43.3379 43.3721 48.6403 43.3721C53.9414 43.3721 58.2403 39.0739 58.2403 33.7721C58.2403 28.4704 53.9414 24.1721 48.6403 24.1721ZM48.6403 44.7949C38.0355 44.7949 33.2803 49.5507 33.2803 60.1549V61.4349C33.3283 63.9565 34.4432 64.0307 36.8003 63.9949H60.4803C63.4851 63.9923 64.0208 63.9981 64.0003 61.4349V60.1549C64.0003 49.5507 59.2438 44.7949 48.6403 44.7949Z" fill="#AC7B3E"/>
</svg>
