<svg width="21" height="21" viewBox="0 0 21 21" fill="none" xmlns="http://www.w3.org/2000/svg">
<path d="M12.1655 12.9885L11.2795 16.0875C10.9475 17.2475 9.3035 17.2475 8.9715 16.0875L8.0865 12.9885C8.03047 12.7925 7.92541 12.6139 7.78124 12.4698C7.63707 12.3256 7.45854 12.2205 7.2625 12.1645L4.1635 11.2795C3.0035 10.9475 3.0035 9.3035 4.1635 8.9715L7.2625 8.0865C7.45854 8.03047 7.63707 7.92541 7.78124 7.78124C7.92541 7.63707 8.03047 7.45854 8.0865 7.2625L8.9715 4.1635C9.3035 3.0035 10.9475 3.0035 11.2795 4.1635L12.1645 7.2625C12.2205 7.45854 12.3256 7.63707 12.4698 7.78124C12.6139 7.92541 12.7925 8.03047 12.9885 8.0865L16.0875 8.9715C17.2475 9.3035 17.2475 10.9475 16.0875 11.2795L12.9885 12.1645C12.7925 12.2205 12.6139 12.3256 12.4698 12.4698C12.3256 12.6139 12.2205 12.7925 12.1645 12.9885M17.6955 17.8415L17.3195 19.3495C17.2695 19.5515 16.9825 19.5515 16.9315 19.3495L16.5545 17.8415C16.5457 17.8065 16.5275 17.7745 16.502 17.749C16.4765 17.7235 16.4445 17.7053 16.4095 17.6965L14.9015 17.3195C14.6995 17.2695 14.6995 16.9825 14.9015 16.9315L16.4095 16.5545C16.4445 16.5457 16.4765 16.5275 16.502 16.502C16.5275 16.4765 16.5457 16.4445 16.5545 16.4095L16.9315 14.9015C16.9815 14.6995 17.2685 14.6995 17.3195 14.9015L17.6965 16.4095C17.7053 16.4445 17.7235 16.4765 17.749 16.502C17.7745 16.5275 17.8065 16.5457 17.8415 16.5545L19.3495 16.9315C19.5515 16.9815 19.5515 17.2685 19.3495 17.3195L17.8415 17.6965C17.8065 17.7053 17.7745 17.7235 17.749 17.749C17.7235 17.7745 17.7043 17.8065 17.6955 17.8415ZM3.6955 3.8415L3.3195 5.3495C3.2695 5.5515 2.9815 5.5515 2.9315 5.3495L2.5545 3.8415C2.54567 3.80649 2.52753 3.77453 2.502 3.749C2.47647 3.72347 2.44451 3.70533 2.4095 3.6965L0.9015 3.3195C0.6995 3.2695 0.6995 2.9815 0.9015 2.9315L2.4095 2.5545C2.44451 2.54567 2.47647 2.52753 2.502 2.502C2.52753 2.47647 2.54567 2.44451 2.5545 2.4095L2.9315 0.9015C2.9815 0.6995 3.2695 0.6995 3.3195 0.9015L3.6965 2.4095C3.70533 2.44451 3.72347 2.47647 3.749 2.502C3.77453 2.52753 3.80649 2.54567 3.8415 2.5545L5.3495 2.9315C5.5515 2.9815 5.5515 3.2695 5.3495 3.3195L3.8415 3.6965C3.80649 3.70533 3.77453 3.72347 3.749 3.749C3.72347 3.77453 3.70433 3.80649 3.6955 3.8415Z" stroke="white" stroke-width="1.5" stroke-miterlimit="10" stroke-linecap="round" stroke-linejoin="round"/>
</svg>
