<svg width="64" height="64" viewBox="0 0 64 64" fill="none" xmlns="http://www.w3.org/2000/svg">
<path d="M57.5203 33.76C57.147 32.6933 56.1337 32 54.9337 32H35.7603C34.5337 32 33.547 32.6933 33.147 33.76L29.3337 44.72V59.4133C29.3337 60.4267 30.187 61.3333 31.2003 61.3333H32.8537C33.867 61.3333 34.667 60.32 34.667 59.3067V56H56.0003V59.3067C56.0003 60.32 56.827 61.3333 57.8403 61.3333H59.467C60.4803 61.3333 61.3337 60.4267 61.3337 59.4133V44.72L57.5203 33.76ZM35.7603 34.6666H54.9337L57.6803 42.6666H33.0137L35.7603 34.6666ZM34.667 50.6667C33.2003 50.6667 32.0003 49.4667 32.0003 48C32.0003 46.5333 33.2003 45.3333 34.667 45.3333C36.1337 45.3333 37.3337 46.5333 37.3337 48C37.3337 49.4667 36.1337 50.6667 34.667 50.6667ZM56.0003 50.6667C54.5337 50.6667 53.3337 49.4667 53.3337 48C53.3337 46.5333 54.5337 45.3333 56.0003 45.3333C57.467 45.3333 58.667 46.5333 58.667 48C58.667 49.4667 57.467 50.6667 56.0003 50.6667ZM17.7603 38.7467L18.667 45.3333L15.867 48.16L11.1737 39.68L2.66699 34.96L5.49366 32.08L12.1603 33.0666L22.4803 22.7466L2.66699 12.32L6.45366 8.55998L30.9603 14.2133L41.3337 3.83998C42.827 2.27998 45.4937 2.27998 46.987 3.83998C48.5603 5.41332 48.5603 7.99998 46.987 9.49332L36.6137 19.8666L38.8003 29.3333H35.7603C33.4403 29.3333 31.4403 30.6667 30.667 32.8267L30.587 32.9866L28.1603 28.3466L17.7603 38.7467Z" fill="#AC7B3E"/>
</svg>
